HIERARCHY
ROOT hip
{
  OFFSET 0 0 0
  CHANNELS 6 Xposition Yposition Zposition Zrotation Yrotation Xrotation
  JOINT abdomen
  {
    OFFSET 0 20.6881 -0.73152
    CHANNELS 3 Zrotation Xrotation Yrotation
    JOINT chest
    {
      OFFSET 0 11.7043 -0.48768
      CHANNELS 3 Zrotation Xrotation Yrotation
      JOINT neck
      {
        OFFSET 0 22.1894 -2.19456
        CHANNELS 3 Zrotation Xrotation Yrotation
        JOINT head
        {
          OFFSET -0.24384 7.07133 1.2192
          CHANNELS 3 Zrotation Xrotation Yrotation
          JOINT leftEye
          {
            OFFSET 4.14528 8.04674 8.04672
            CHANNELS 3 Zrotation Xrotation Yrotation
            End Site
            {
              OFFSET 1 0 0
            }
          }
          JOINT rightEye
          {
            OFFSET -3.6576 8.04674 8.04672
            CHANNELS 3 Zrotation Xrotation Yrotation
            End Site
            {
              OFFSET 1 0 0
            }
          }
        }
      }
      JOINT rCollar
      {
        OFFSET -2.68224 19.2634 -4.8768
        CHANNELS 3 Zrotation Xrotation Yrotation
        JOINT rShldr
        {
          OFFSET -8.77824 -1.95073 1.46304
          CHANNELS 3 Zrotation Xrotation Yrotation
          JOINT rForeArm
          {
            OFFSET -28.1742 -1.7115 0.48768
            CHANNELS 3 Zrotation Xrotation Yrotation
            JOINT rHand
            {
              OFFSET -22.5879 0.773209 7.07136
              CHANNELS 3 Zrotation Xrotation Yrotation
              JOINT rThumb1
              {
                OFFSET -1.2192 -0.487915 3.41376
                CHANNELS 3 Zrotation Xrotation Yrotation
                JOINT rThumb2
                {
                  OFFSET -3.37035 -0.52449 3.41376
                  CHANNELS 3 Zrotation Xrotation Yrotation
                  End Site
                  {
                    OFFSET -1.78271 -1.18214 1.43049
                  }
                }
              }
              JOINT rIndex1
              {
                OFFSET -7.75947 0.938293 5.60832
                CHANNELS 3 Zrotation Xrotation Yrotation
                JOINT rIndex2
                {
                  OFFSET -2.54057 -0.884171 1.56538
                  CHANNELS 3 Zrotation Xrotation Yrotation
                  End Site
                  {
                    OFFSET -1.62519 -0.234802 1.16502
                  }
                }
              }
              JOINT rMid1
              {
                OFFSET -8.24714 1.18213 3.41376
                CHANNELS 3 Zrotation Xrotation Yrotation
                JOINT rMid2
                {
                  OFFSET -3.10165 -0.590103 1.0647
                  CHANNELS 3 Zrotation Xrotation Yrotation
                  End Site
                  {
                    OFFSET -2.48547 -0.328903 0.83742
                  }
                }
              }
              JOINT rRing1
              {
                OFFSET -8.82822 0.546677 1.51678
                CHANNELS 3 Zrotation Xrotation Yrotation
                JOINT rRing2
                {
                  OFFSET -2.60934 -0.819778 -0.0198488
                  CHANNELS 3 Zrotation Xrotation Yrotation
                  End Site
                  {
                    OFFSET -2.33842 -0.294052 0.168128
                  }
                }
              }
              JOINT rPinky1
              {
                OFFSET -8.27202 -0.0477905 -0.4584
                CHANNELS 3 Zrotation Xrotation Yrotation
                JOINT rPinky2
                {
                  OFFSET -1.82734 -0.647385 -0.700984
                  CHANNELS 3 Zrotation Xrotation Yrotation
                  End Site
                  {
                    OFFSET -1.69225 -0.51767 -0.607171
                  }
                }
              }
            }
          }
        }
      }
      JOINT lCollar
      {
        OFFSET 2.68224 19.2634 -4.8768
        CHANNELS 3 Zrotation Xrotation Yrotation
        JOINT lShldr
        {
          OFFSET 8.77824 -1.95073 1.46304
          CHANNELS 3 Zrotation Xrotation Yrotation
          JOINT lForeArm
          {
            OFFSET 28.1742 -1.7115 0.48768
            CHANNELS 3 Zrotation Xrotation Yrotation
            JOINT lHand
            {
              OFFSET 22.5879 0.773209 7.07136
              CHANNELS 3 Zrotation Xrotation Yrotation
              JOINT lThumb1
              {
                OFFSET 1.2192 -0.487915 3.41376
                CHANNELS 3 Zrotation Xrotation Yrotation
                JOINT lThumb2
                {
                  OFFSET 3.37035 -0.52449 3.41376
                  CHANNELS 3 Zrotation Xrotation Yrotation
                  End Site
                  {
                    OFFSET 1.78271 -1.18214 1.43049
                  }
                }
              }
              JOINT lIndex1
              {
                OFFSET 7.75947 0.938293 5.60832
                CHANNELS 3 Zrotation Xrotation Yrotation
                JOINT lIndex2
                {
                  OFFSET 2.54057 -0.884171 1.56538
                  CHANNELS 3 Zrotation Xrotation Yrotation
                  End Site
                  {
                    OFFSET 1.62519 -0.234802 1.16502
                  }
                }
              }
              JOINT lMid1
              {
                OFFSET 8.24714 1.18213 3.41376
                CHANNELS 3 Zrotation Xrotation Yrotation
                JOINT lMid2
                {
                  OFFSET 3.10165 -0.590103 1.0647
                  CHANNELS 3 Zrotation Xrotation Yrotation
                  End Site
                  {
                    OFFSET 2.48547 -0.328903 0.83742
                  }
                }
              }
              JOINT lRing1
              {
                OFFSET 8.82822 0.546677 1.51678
                CHANNELS 3 Zrotation Xrotation Yrotation
                JOINT lRing2
                {
                  OFFSET 2.60934 -0.819778 -0.0198488
                  CHANNELS 3 Zrotation Xrotation Yrotation
                  End Site
                  {
                    OFFSET 2.33842 -0.294052 0.168128
                  }
                }
              }
              JOINT lPinky1
              {
                OFFSET 8.27202 -0.0477905 -0.4584
                CHANNELS 3 Zrotation Xrotation Yrotation
                JOINT lPinky2
                {
                  OFFSET 1.82734 -0.647385 -0.700984
                  CHANNELS 3 Zrotation Xrotation Yrotation
                  End Site
                  {
                    OFFSET 1.69225 -0.51767 -0.607171
                  }
                }
              }
            }
          }
        }
      }
    }
  }
  JOINT rButtock
  {
    OFFSET -8.77824 4.35084 1.2192
    CHANNELS 3 Zrotation Xrotation Yrotation
    JOINT rThigh
    {
      OFFSET 0 -1.70687 -2.19456
      CHANNELS 3 Zrotation Xrotation Yrotation
      JOINT rShin
      {
        OFFSET 0 -36.8199 0.73152
        CHANNELS 3 Zrotation Xrotation Yrotation
        JOINT rFoot
        {
          OFFSET 0.73152 -45.1104 -5.12064
          CHANNELS 3 Zrotation Xrotation Yrotation
          End Site
          {
            OFFSET -1.1221 -3.69964 12.103
          }
        }
      }
    }
  }
  JOINT lButtock
  {
    OFFSET 8.77824 4.35084 1.2192
    CHANNELS 3 Zrotation Xrotation Yrotation
    JOINT lThigh
    {
      OFFSET 0 -1.70687 -2.19456
      CHANNELS 3 Zrotation Xrotation Yrotation
      JOINT lShin
      {
        OFFSET 0 -36.8199 0.73152
        CHANNELS 3 Zrotation Xrotation Yrotation
        JOINT lFoot
        {
          OFFSET -0.73152 -45.1104 -5.12064
          CHANNELS 3 Zrotation Xrotation Yrotation
          End Site
          {
            OFFSET 1.1221 -3.69964 12.103
          }
        }
      }
    }
  }
}
MOTION
Frames:	7
Frame Time:	0.03333
0.0 0.0 0.0 0.0 0.0 0.0 0.0 0.0 0.0 0.0 0.0 0.0 0.0 0.0 0.0 0.0 0.0 0.0 0.0 0.0 0.0 0.0 0.0 0.0 0.0 0.0 0.0 0.0 0.0 0.0 0.0 0.0 0.0 0.0 0.0 0.0 0.0 0.0 0.0 0.0 0.0 0.0 0.0 0.0 0.0 0.0 0.0 0.0 0.0 0.0 0.0 0.0 0.0 0.0 0.0 0.0 0.0 0.0 0.0 0.0 0.0 0.0 0.0 0.0 0.0 0.0 0.0 0.0 0.0 0.0 0.0 0.0 0.0 0.0 0.0 0.0 0.0 0.0 0.0 0.0 0.0 0.0 0.0 0.0 0.0 0.0 0.0 0.0 0.0 0.0 0.0 0.0 0.0 0.0 0.0 0.0 0.0 0.0 0.0 0.0 0.0 0.0 0.0 0.0 0.0 0.0 0.0 0.0 0.0 0.0 0.0 0.0 0.0 0.0 0.0 0.0 0.0 0.0 0.0 0.0 0.0 0.0 0.0 0.0 0.0 0.0 0.0 0.0 0.0 0.0 0.0 0.0
0.026699999999999998 51.8575 -0.08639999999999999 169.032329 1.722051 -176.329036 -21.151973 10.877267 -0.0 7.012961 -9.445412 6.812022 3.398954 19.494657 52.400793 -30.926918 -11.334304 -96.277321 -0.003382 -0.0 0.001081 0.002253 0.0 6.8e-05 -9.652008 34.836115 11.199432 95.44159 -49.402105 115.435862 86.635755 -51.198652 67.044978 -176.430579 45.194367 152.49994 4.530829 -4.514122 -0.52087 0.023324 -1.527306 -3.153621 -19.169007 24.115523 13.379515 -13.196249 26.550716 8.307601 -0.220497 0.638216 0.123773 -179.652908 -48.712911 141.480517 -145.119595 0.310406 -179.225105 7.721729 -21.548637 -12.223498 17.603227 61.627985 12.867559 -146.839525 7.048708 -141.927459 152.128689 14.113287 -157.557031 -83.985626 -26.70495 -115.892724 -21.703705 -16.990635 -109.992279 16.200627 -8.956129 3.028812 169.14942 -6.830351 -89.915705 27.913321 -32.725212 -5.289348 157.328119 -28.217751 -122.489363 -1.777024 19.796062 5.327792 36.035094 51.723833 -29.83096 36.207051 56.051892 -30.853702 69.296998 72.94609 -87.017369 156.319192 -46.206708 176.167194 -12.631621 42.934163 -10.533253 127.853445 -30.901146 125.385958 179.977137 75.750043 0.015643 150.625069 -6.987772 -106.158763 -85.849383 -28.839144 8.76263 151.685195 23.768652 -72.483095 -179.995483 75.750334 -0.003091 -79.807333 80.182131 -5.236611 41.516184 -0.782731 89.500182 -162.77395 -4.992853 144.416785
0.0442 51.8243 -0.1222 169.040907 1.744306 -176.347333 -18.757386 8.785375 -82.790221 7.93705 3.569419 88.428572 6.512255 30.904758 122.75088 -32.38098 32.171843 -155.428387 -0.000802 0.0 -0.002057 -0.000802 0.0 -0.002057 -149.905345 22.421949 154.975757 109.466351 55.681558 -111.095145 -176.914539 -47.994724 125.927109 146.013637 -44.988326 133.55099 -78.030154 38.68998 42.412867 -92.303104 -5.11043 69.0483 2.326558 -3.867589 -1.259613 4.965404 9.80617 1.421733 -159.36407 -2.685628 142.597662 -176.791887 -42.234577 142.38966 0.002212 0.022904 0.005369 11.107961 -13.792157 -1.709698 26.977607 80.122405 10.13342 68.528428 85.11959 -31.306828 152.128437 14.113118 -157.556625 48.726844 -10.95381 -54.806978 -106.005937 -37.162252 125.614967 32.241957 28.664906 -12.258927 0.441674 0.435322 -0.068338 85.684012 22.095547 -78.546124 46.209064 39.653726 -36.316919 169.656588 -19.075857 -111.881474 -2.100247 -6.305449 1.080735 -11.342364 -24.941899 1.562666 72.134592 72.973052 -89.990551 -5.195404 26.572892 0.918071 12.4373 -24.247202 11.817357 146.714153 11.187118 143.465215 179.995559 75.749964 0.004582 149.569877 -5.569811 -3.927478 -93.369224 77.39861 -54.384701 -162.865845 30.606739 -146.510438 -179.987098 75.751122 -0.008828 -74.347039 78.752656 -105.366674 -7.3745 39.058268 -149.822724 84.912581 30.135679 162.812793
0.058100000000000006 51.794700000000006 -0.1451 169.069851 1.747913 -176.37162 -23.381383 9.315404 69.474543 -4.205942 -11.374727 -63.561954 -14.977472 26.03379 -71.655039 38.976698 -2.062521 33.495402 -0.004847 0.0 -0.004323 -0.003414 -0.0 0.00352 -158.897529 -36.946425 168.196915 63.425726 38.920244 -31.895079 -162.871302 -19.834331 133.515917 119.186763 -60.212619 108.582812 2.436348 -2.418752 -0.323536 8.169172 -12.902793 -8.299384 -26.600074 30.072754 19.415062 1.942452 8.511284 0.266578 -160.993162 -7.659052 143.392977 18.75726 -43.090321 0.530374 0.005176 0.9178 0.288196 -154.307466 12.769104 170.104593 -145.543135 13.244787 -142.14905 44.920613 79.501313 -8.810331 33.835521 -85.665793 55.253243 16.971749 25.08477 50.388539 -165.024186 53.938743 63.130128 14.588427 -15.100726 4.515042 -83.25363 -50.258496 -33.616208 32.549024 6.764579 7.430191 -2.324716 -3.868255 1.258424 -1.413333 14.299577 -2.829227 165.206821 -21.113235 -144.880442 18.316568 42.11425 -14.864444 145.123707 1.121798 179.47972 -11.509631 58.799306 1.662273 126.797358 -26.619216 124.512297 146.581908 11.057141 141.853707 -179.997156 75.749937 -0.001946 148.318169 -6.655035 87.216304 87.314153 2.087506 21.768939 26.061622 88.367987 -103.706778 0.002453 0.002543 0.001227 10.29742 15.359044 119.195634 33.024592 -10.160537 162.852387 -153.356103 61.879802 -123.531055
0.068 51.7622 -0.1611 169.111935 1.740384 -176.404081 -21.065431 10.856671 -0.0 6.986716 -9.426042 6.77484 -2.552459 36.723231 -175.444134 9.053157 47.873936 130.584131 0.003277 0.0 0.000267 0.003277 0.0 0.000267 -0.049375 0.292323 0.065394 -0.829777 -2.294159 55.093191 0.231574 -56.850161 16.177317 -6.523742 42.629473 4.532308 71.831436 -48.263637 25.791457 -11.45542 -45.796063 -32.626241 -152.465674 -19.226171 121.473239 145.318238 -67.201236 86.998571 -159.365567 -2.685187 142.598315 -154.575379 18.499113 138.743141 -145.119446 0.30947 -179.227011 -71.288687 -78.003657 -92.774092 26.97669 80.122273 10.13576 -11.394006 -25.53041 -12.184346 155.613498 -4.236349 -161.991341 119.067412 44.287452 -63.709737 151.004286 62.182667 101.951804 9.023813 -38.961932 9.127121 -176.506702 -20.695481 -88.629103 77.501713 11.412605 -23.555241 -0.184144 -0.300658 0.103484 -17.864976 -8.924188 1.360485 -0.047399 -0.138665 0.02623 154.079809 20.054237 -138.723998 -0.004798 0.917982 -0.288725 -7.37084 26.541877 -4.023875 -12.121509 40.912701 -10.19141 115.29871 -42.596894 113.397235 -0.000963 -0.000404 -0.000963 -76.90512 -58.776405 -75.448777 -32.275676 76.914551 65.652288 -77.699549 14.505661 13.648333 0.000104 -0.000404 -0.000133 11.472824 17.096954 -3.194224 5.046372 33.962768 80.593538 -104.734587 27.358476 3.398445
0.07150000000000001 51.7426 -0.17279999999999998 169.137191 1.736083 -176.436184 -19.103628 7.058842 -126.273165 1.677269 7.356759 131.985366 -4.139827 36.769819 -167.198287 15.429436 46.452362 120.058556 -0.005093 0.0 -0.002822 0.001226 0.0 0.00086 -82.106168 68.324771 85.221536 -143.954014 85.322721 108.510847 107.799178 71.821234 -89.850815 -40.127432 75.909309 29.267752 -171.604101 -9.285899 89.950309 83.133226 -67.859006 63.262543 174.380412 -63.059587 113.272124 -17.924507 43.035513 11.773745 -36.036865 51.723106 29.831871 -42.042773 58.504062 36.270599 -77.741957 72.902891 95.870127 5.739521 15.085084 -2.689197 -25.518005 -38.071073 -24.578563 4.364052 3.259754 0.668525 149.904931 22.421811 -154.975487 -158.940136 11.8993 -111.063253 114.990938 -56.126618 -96.808827 168.7161 -12.650601 -146.686938 -71.830526 -48.26451 -25.79163 150.390655 -11.232413 -120.706127 43.647808 38.8034 -34.06061 161.911217 -7.33151 -111.855568 89.835703 60.701871 -81.262566 163.294125 -5.433192 -143.223882 145.121879 1.975533 179.748633 67.296783 87.683086 -80.405671 -44.760463 86.376911 5.394941 -1.500601 0.346126 0.950226 -179.994237 75.747958 -0.005946 150.538388 -6.459202 -78.737087 -91.23324 1.280924 -44.937919 116.300605 -20.304813 -153.812877 -0.007041 6e-06 -0.00352 11.514701 17.151443 -3.216813 -10.261536 36.306324 -117.980785 -33.409524 37.438085 165.851449
0.0679 51.7305 -0.1782 169.128736 1.733532 -176.454507 -21.069865 10.842021 -0.0 6.980403 -9.441825 6.773916 -14.618652 29.892517 -94.181571 40.937395 12.019584 51.025356 0.000863 0.0 0.001267 0.000923 -0.0 -0.000183 -33.846845 -85.6652 -55.263842 55.731847 6.417501 11.997779 -68.0112 62.171462 76.738657 6.410112 1.28923 5.93532 87.247989 -50.68922 36.415118 -33.103481 5.807663 -7.762621 -4.92336 7.535921 2.995142 -178.54815 -34.114372 106.420099 -0.129192 0.375479 0.070717 -129.271529 52.115512 118.503669 -145.120742 0.2678 -179.212348 -154.427898 71.870582 169.602254 10.275863 33.656413 8.863269 -129.232587 -29.100616 -126.868112 157.066379 -15.190561 -164.173567 57.511337 -15.698051 -25.36969 -23.402187 5.232435 139.529784 144.405019 37.62883 -123.338704 -93.028089 -51.084237 -40.501371 59.998871 30.597818 -19.321686 140.164322 2.326649 -115.878577 169.125215 -26.700343 -118.441654 8.306313 20.652481 -5.560944 -80.575084 -77.98667 -52.035144 145.111862 -0.626379 178.930164 151.781897 -28.04529 174.709827 150.578603 31.033599 146.364047 9.882119 -23.286021 11.990018 -179.995765 75.748304 -0.003485 148.296269 -6.377539 73.672456 86.780498 28.347547 176.806819 51.872159 -58.770314 152.266526 -179.997311 75.749982 -0.002774 -76.160904 79.806572 -30.440868 34.752334 4.317815 5.526856 -106.41162 25.056147 4.354443
